<svg width="24" height="24" viewBox="0 0 24 24" fill="none" xmlns="http://www.w3.org/2000/svg">
  <path
    d="M14.67 12.6527C14.67 14.1273 13.4746 15.3227 12 15.3227C10.5254 15.3227 9.33001 14.1273 9.33001 12.6527C9.33001 11.1781 10.5254 9.98267 12 9.98267C13.4746 9.98267 14.67 11.1781 14.67 12.6527Z"
    fill="black" />
  <path fill-rule="evenodd" clip-rule="evenodd"
    d="M12 24C18.6274 24 24 18.6274 24 12C24 5.37258 18.6274 0 12 0C5.37258 0 0 5.37258 0 12C0 18.6274 5.37258 24 12 24ZM10.13 7.25333C9.68819 7.25333 9.33002 7.6115 9.33002 8.05333V8.55867H6.03602C5.59419 8.55867 5.23602 8.91684 5.23602 9.35867V15.9467C5.23602 16.3885 5.59419 16.7467 6.03602 16.7467H17.964C18.4058 16.7467 18.764 16.3885 18.764 15.9467V9.35867C18.764 8.91684 18.4058 8.55867 17.964 8.55867H14.67V8.05333C14.67 7.61151 14.3118 7.25333 13.87 7.25333H10.13Z"
    fill="black" />
</svg>